{"title":"Arthur D.W and the Beastly Birthday 2017 1080p WEB-DL x264 [MW]","magnet":"magnet:?xt=urn:btih:bd7a0bc36600841f20bbfee14cef4e420eed71d9&dn=Arthur+D.W+and+the+Beastly+Birthday+2017+1080p+WEB-DL+x264+%5BMW%5D&tr=udp%3A%2F%2Ftracker.leechers-paradise.org%3A6969&tr=udp%3A%2F%2Fzer0day.ch%3A1337&tr=udp%3A%2F%2Fopen.demonii.com%3A1337&tr=udp%3A%2F%2Ftracker.coppersurfer.tk%3A6969&tr=udp%3A%2F%2Fexodus.desync.com%3A6969","uploader":"MFreaky","categoryP":"video","categoryS":"hd___movies","size":"1368704275","seeders":"0","leechers":"0","description":"\n\r\nVideo\r\nID : 1\r\nFormat : AVC\r\nFormat/Info : Advanced Video Codec\r\nFormat profile : High@L4.1\r\nFormat settings : CABAC / 4 Ref Frames\r\nFormat settings, CABAC : Yes\r\nFormat settings, RefFrames : 4 frames\r\nCodec ID : V_MPEG4/ISO/AVC\r\nDuration : 56 min 41 s\r\nBit rate : 3 000 kb/s\r\nWidth : 1 920 pixels\r\nHeight : 1 080 pixels\r\nDisplay aspect ratio : 16:9\r\nFrame rate mode : Constant\r\nFrame rate : 23.976 (24000/1001) FPS\r\nColor space : YUV\r\nChroma subsampling : 4:2:0\r\nBit depth : 8 bits\r\nScan type : Progressive\r\nBits/(Pixel*Frame) : 0.060\r\nStream size : 1.20 GiB (94%)\r\nWriting library : x264 core 155 r2901 7d0ff22\r\nDefault : Yes\r\nForced : No\r\n\r\nAudio\r\nID : 2\r\nFormat : AAC\r\nFormat/Info : Advanced Audio Codec\r\nFormat profile : LC\r\nCodec ID : A_AAC-2\r\nDuration : 56 min 41 s\r\nBit rate : 192 kb/s\r\nChannel(s) : 2 channels\r\nChannel positions : Front: L R\r\nSampling rate : 48.0 kHz\r\nFrame rate : 46.875 FPS (1024 SPF)\r\nCompression mode : Lossy\r\nStream size : 78.2 MiB (6%)\r\nLanguage : English\r\nDefault : Yes\r\nForced : No","last_updated":"2018-08-23T12:01:22.058Z","parsed":{"xt":"urn:btih:bd7a0bc36600841f20bbfee14cef4e420eed71d9","dn":"Arthur D.W and the Beastly Birthday 2017 1080p WEB-DL x264 [MW]","tr":["udp://exodus.desync.com:6969","udp://open.demonii.com:1337","udp://tracker.coppersurfer.tk:6969","udp://tracker.leechers-paradise.org:6969","udp://zer0day.ch:1337"],"infoHash":"bd7a0bc36600841f20bbfee14cef4e420eed71d9","infoHashBuffer":{"type":"Buffer","data":[189,122,11,195,102,0,132,31,32,187,254,225,76,239,78,66,14,237,113,217]},"name":"Arthur D.W and the Beastly Birthday 2017 1080p WEB-DL x264 [MW]","announce":["udp://exodus.desync.com:6969","udp://open.demonii.com:1337","udp://tracker.coppersurfer.tk:6969","udp://tracker.leechers-paradise.org:6969","udp://zer0day.ch:1337"],"urlList":[]}}